<svg width="12" height="12" viewBox="0 0 12 12" fill="none" xmlns="http://www.w3.org/2000/svg">
<path d="M8.93041 8.935C8.3049 8.935 7.79786 9.43245 7.79786 10.0461C7.79786 10.6598 8.3049 11.1572 8.93041 11.1572C9.55592 11.1572 10.063 10.6598 10.063 10.0461C10.063 9.43245 9.55592 8.935 8.93041 8.935ZM8.93041 8.935H4.56667C4.30558 8.935 4.17479 8.935 4.0673 8.88945C3.97248 8.84922 3.89021 8.7845 3.83028 8.70195C3.7631 8.60945 3.73608 8.48572 3.68259 8.24083L2.28885 1.85981C2.23412 1.60924 2.20639 1.4841 2.13843 1.39052C2.0785 1.30798 1.99625 1.24301 1.90142 1.20281C1.79391 1.15723 1.66385 1.15723 1.40265 1.15723H1.00256M2.70139 2.82389H9.99115C10.3999 2.82389 10.604 2.82389 10.7412 2.90743C10.8614 2.98059 10.9493 3.09535 10.9877 3.22889C11.0315 3.38135 10.9752 3.57387 10.862 3.95915L10.0779 6.62584C10.0102 6.85617 9.97626 6.97111 9.90757 7.05661C9.84692 7.13206 9.76691 7.19111 9.67619 7.22739C9.57375 7.26833 9.452 7.26834 9.20907 7.26834H3.68131M3.83394 11.1572C3.20845 11.1572 2.70139 10.6598 2.70139 10.0461C2.70139 9.43245 3.20845 8.935 3.83394 8.935C4.45943 8.935 4.96649 9.43245 4.96649 10.0461C4.96649 10.6598 4.45943 11.1572 3.83394 11.1572Z" stroke="#FEFEFE" stroke-width="1.13255" stroke-linecap="round" stroke-linejoin="round"/>
</svg>
