<svg width="24" height="24" viewBox="0 0 24 24" fill="none" xmlns="http://www.w3.org/2000/svg">
<path d="M7.2 3.9991V5.59796H22.4V8.76295L20.625 14.3917H6.6966L4.6966 0H0V1.59886H3.3034L5.3034 15.9906H21.7984L24 9.00888V3.9991H7.2Z" fill="#333333"/>
<path d="M8.04918 17.6046C7.20079 17.6056 6.38741 17.9428 5.78751 18.5423C5.1876 19.1418 4.85015 19.9545 4.84918 20.8023C4.84918 21.6504 5.18632 22.4638 5.78644 23.0635C6.38656 23.6632 7.20049 24.0001 8.04918 24.0001C8.89787 24.0001 9.71181 23.6632 10.3119 23.0635C10.912 22.4638 11.2492 21.6504 11.2492 20.8023C11.2482 19.9545 10.9108 19.1417 10.3109 18.5423C9.71096 17.9428 8.89758 17.6056 8.04918 17.6046ZM8.04918 22.4012C7.73273 22.4012 7.42339 22.3074 7.16027 22.1317C6.89715 21.9561 6.69208 21.7063 6.57097 21.4142C6.44987 21.122 6.41819 20.8006 6.47993 20.4904C6.54166 20.1803 6.69405 19.8954 6.91781 19.6718C7.14157 19.4482 7.42667 19.2959 7.73704 19.2342C8.04741 19.1725 8.36911 19.2042 8.66148 19.3252C8.95384 19.4462 9.20372 19.6511 9.37953 19.9141C9.55534 20.177 9.64918 20.4861 9.64918 20.8023C9.64868 21.2262 9.47995 21.6326 9.18 21.9323C8.88005 22.2321 8.47337 22.4007 8.04918 22.4012Z" fill="#333333"/>
<path d="M19.2492 17.6046C18.4008 17.6056 17.5874 17.9428 16.9875 18.5423C16.3876 19.1418 16.0502 19.9545 16.0492 20.8023C16.0492 21.6504 16.3863 22.4638 16.9865 23.0635C17.5866 23.6632 18.4005 24.0001 19.2492 24.0001C20.0979 24.0001 20.9118 23.6632 21.5119 23.0635C22.1121 22.4638 22.4492 21.6504 22.4492 20.8023C22.4482 19.9545 22.1108 19.1417 21.5109 18.5423C20.911 17.9428 20.0976 17.6056 19.2492 17.6046ZM19.2492 22.4012C18.9327 22.4012 18.6234 22.3074 18.3603 22.1317C18.0972 21.9561 17.8921 21.7063 17.771 21.4142C17.6499 21.122 17.6182 20.8006 17.6799 20.4904C17.7417 20.1803 17.8941 19.8954 18.1178 19.6718C18.3416 19.4482 18.6267 19.2959 18.937 19.2342C19.2474 19.1725 19.5691 19.2042 19.8615 19.3252C20.1538 19.4462 20.4037 19.6511 20.5795 19.9141C20.7554 20.177 20.8492 20.4861 20.8492 20.8023C20.8487 21.2262 20.68 21.6326 20.38 21.9323C20.0801 22.2321 19.6734 22.4007 19.2492 22.4012Z" fill="#333333"/>
</svg>
