<svg width="20" height="18" viewBox="0 0 20 18" fill="none" xmlns="http://www.w3.org/2000/svg">
<mask id="path-1-inside-1_229_117" fill="white">
<path d="M0.259114 7.74818C-0.0452765 7.48306 0.120071 7.00378 0.531787 6.95782L6.36556 6.30614C6.53335 6.2874 6.6791 6.18816 6.74988 6.04365L9.21051 1.01962C9.38415 0.665058 9.91938 0.664984 10.093 1.01955L12.5536 6.04354C12.6243 6.18806 12.7692 6.28756 12.9369 6.30629L18.771 6.95782C19.1827 7.00378 19.3476 7.48315 19.0433 7.74828L14.7307 11.505C14.6066 11.6131 14.5515 11.7739 14.5843 11.93L15.7289 17.3565C15.8097 17.7395 15.3769 18.0363 15.0152 17.8456L9.88896 15.1425C9.74155 15.0648 9.56246 15.0652 9.41496 15.1429L4.28832 17.8449C3.92654 18.0356 3.49297 17.7395 3.57377 17.3565L4.7185 11.9303C4.75143 11.7742 4.69634 11.613 4.57228 11.505L0.259114 7.74818Z"/>
</mask>
<path d="M0.259114 7.74818L4.85671 2.46973L4.85665 2.46968L0.259114 7.74818ZM0.531787 6.95782L1.30852 13.9146L1.30891 13.9145L0.531787 6.95782ZM6.36556 6.30614L5.5885 -0.650597L5.58844 -0.65059L6.36556 6.30614ZM6.74988 6.04365L13.0363 9.12281L13.0364 9.1226L6.74988 6.04365ZM9.21051 1.01962L15.497 4.09857L15.4971 4.09845L9.21051 1.01962ZM10.093 1.01955L3.80644 4.09833L3.80651 4.09847L10.093 1.01955ZM12.5536 6.04354L18.8407 2.96591L18.8401 2.96462L12.5536 6.04354ZM12.9369 6.30629L12.1599 13.263L12.16 13.263L12.9369 6.30629ZM18.771 6.95782L17.9941 13.9146L17.9943 13.9146L18.771 6.95782ZM19.0433 7.74828L23.6412 13.0265L23.6413 13.0264L19.0433 7.74828ZM14.7307 11.505L19.3283 16.7835L19.3286 16.7832L14.7307 11.505ZM14.5843 11.93L7.73423 13.371L7.735 13.3747L14.5843 11.93ZM15.7289 17.3565L8.87958 18.8012L8.87981 18.8023L15.7289 17.3565ZM15.0152 17.8456L11.7501 24.0375L11.7507 24.0378L15.0152 17.8456ZM9.88896 15.1425L13.154 8.95061L13.1529 8.95003L9.88896 15.1425ZM9.41496 15.1429L6.15269 8.9495L6.15116 8.95031L9.41496 15.1429ZM4.28832 17.8449L1.02452 11.6523L1.02395 11.6526L4.28832 17.8449ZM3.57377 17.3565L10.423 18.8015L10.423 18.8015L3.57377 17.3565ZM4.7185 11.9303L-2.13063 10.4848L-2.13075 10.4854L4.7185 11.9303ZM4.57228 11.505L-0.0253188 16.7835L-0.0236683 16.7849L4.57228 11.505ZM4.85665 2.46968C6.97707 4.31654 7.566 7.17162 6.74418 9.55374C5.937 11.8934 3.84727 13.6311 1.30852 13.9146L-0.244942 0.00104243C-6.02811 0.646737 -9.75173 8.31174 -4.33843 13.0267L4.85665 2.46968ZM1.30891 13.9145L7.14267 13.2629L5.58844 -0.65059L-0.245332 0.001086L1.30891 13.9145ZM7.14261 13.2629C9.53396 12.9958 11.8459 11.5531 13.0363 9.12281L0.463483 2.96449C1.51233 0.823168 3.53275 -0.420974 5.5885 -0.650597L7.14261 13.2629ZM13.0364 9.1226L15.497 4.09857L2.92401 -2.05933L0.463379 2.96471L13.0364 9.1226ZM15.4971 4.09845C14.2344 6.67659 11.7267 7.75346 9.65244 7.75366C7.57806 7.75386 5.06942 6.67722 3.80644 4.09833L16.3796 -2.05922C13.6445 -7.64401 5.65718 -7.64008 2.92395 -2.05922L15.4971 4.09845ZM3.80651 4.09847L6.26709 9.12246L18.8401 2.96462L16.3795 -2.05937L3.80651 4.09847ZM6.26646 9.12118C7.44656 11.5319 9.74433 12.9932 12.1599 13.263L13.714 -0.650444C15.7941 -0.418103 17.8021 0.844174 18.8407 2.96591L6.26646 9.12118ZM12.16 13.263L17.9941 13.9146L19.5479 0.0010609L13.7138 -0.65046L12.16 13.263ZM17.9943 13.9146C13.0189 13.3591 9.65312 6.6448 14.4453 2.47013L23.6413 13.0264C29.0422 8.32151 25.3466 0.648489 19.5478 0.00104243L17.9943 13.9146ZM14.4454 2.47008L10.1328 6.22681L19.3286 16.7832L23.6412 13.0265L14.4454 2.47008ZM10.1332 6.22651C8.16227 7.94317 7.16132 10.6477 7.73423 13.371L21.4344 10.489C21.9416 12.9001 21.051 15.283 19.3283 16.7835L10.1332 6.22651ZM7.735 13.3747L8.87958 18.8012L22.5782 15.9119L21.4336 10.4853L7.735 13.3747ZM8.87981 18.8023C8.25434 15.8393 9.73102 13.31 11.5805 12.0423C13.4024 10.7936 15.9773 10.4397 18.2796 11.6534L11.7507 24.0378C14.4148 25.4422 17.387 25.0353 19.4955 23.5901C21.6316 22.126 23.2843 19.2568 22.5779 15.9108L8.87981 18.8023ZM18.2802 11.6537L13.154 8.95061L6.6239 21.3344L11.7501 24.0375L18.2802 11.6537ZM13.1529 8.95003C10.9516 7.78976 8.33094 7.80214 6.15269 8.9495L12.6772 21.3362C10.794 22.3282 8.53148 22.3398 6.62501 21.335L13.1529 8.95003ZM6.15116 8.95031L1.02452 11.6523L7.55211 24.0374L12.6788 21.3354L6.15116 8.95031ZM1.02395 11.6526C3.32213 10.4411 5.89259 10.7917 7.71384 12.0359C9.5646 13.3004 11.0497 15.8311 10.423 18.8015L-3.27548 15.9116C-3.98292 19.265 -2.32149 22.1352 -0.183691 23.5957C1.92459 25.0361 4.89273 25.4394 7.55268 24.0371L1.02395 11.6526ZM10.423 18.8015L11.5677 13.3752L-2.13075 10.4854L-3.27548 15.9116L10.423 18.8015ZM11.5676 13.3758C12.1412 10.658 11.1473 7.9478 9.16823 6.22512L-0.0236683 16.7849C-1.75459 15.2782 -2.63837 12.8905 -2.13063 10.4848L11.5676 13.3758ZM9.16988 6.22655L4.85671 2.46973L-4.33849 13.0266L-0.0253185 16.7835L9.16988 6.22655Z" fill="#A5A5B3" mask="url(#path-1-inside-1_229_117)"/>
</svg>
