<svg width="24" height="24" viewBox="0 0 24 24" fill="none" xmlns="http://www.w3.org/2000/svg">
<path d="M21.7915 2.09534C21.1992 1.43072 20.496 0.903578 19.722 0.544048C18.9481 0.184519 18.1186 -0.000352447 17.2809 5.0443e-07C16.4432 0.000353456 15.6139 0.185923 14.8402 0.546105C14.0665 0.906287 13.3636 1.43402 12.7717 2.09915L11.9991 2.97663L11.233 2.10105L11.228 2.09546C10.636 1.43114 9.93311 0.904179 9.15959 0.544655C8.38607 0.18513 7.55701 8.51469e-05 6.71975 8.51469e-05C5.8825 8.51469e-05 5.05344 0.18513 4.27992 0.544655C3.5064 0.904179 2.80356 1.43114 2.21153 2.09546L1.86735 2.48166C0.671706 3.82329 0 5.64293 0 7.54028C0 9.43763 0.671706 11.2573 1.86735 12.5989L10.9512 22.7917L11.977 23.9977L12.0015 23.9702L12.028 24L12.9891 22.8621L22.1357 12.5987C23.3295 11.256 24 9.4368 24 7.54011C24 5.64343 23.3295 3.82419 22.1357 2.48149L21.7915 2.09534ZM21.0084 11.3341L12.0015 21.4409L2.99433 11.3341C2.0976 10.3279 1.59383 8.96315 1.59383 7.54014C1.59383 6.11713 2.0976 4.75241 2.99433 3.74618L3.33856 3.35998C4.23486 2.35426 5.45036 1.78901 6.71791 1.78848C7.98546 1.78794 9.20134 2.35216 10.0983 3.35713L11.9957 5.52495L13.9021 3.35998C14.3461 2.86174 14.8732 2.46652 15.4534 2.19688C16.0335 1.92723 16.6553 1.78845 17.2832 1.78845C17.9112 1.78845 18.533 1.92723 19.1131 2.19688C19.6933 2.46652 20.2204 2.86174 20.6644 3.35998L21.0086 3.74613C21.904 4.75318 22.4068 6.11763 22.4068 7.54016C22.4067 8.96268 21.9038 10.3271 21.0084 11.3341Z" fill="#333333"/>
</svg>
