<svg width="107" height="22" viewBox="0 0 107 22" fill="none" xmlns="http://www.w3.org/2000/svg">
<path d="M0.457031 2.54297C0.457031 1.88672 0.679688 1.33594 1.125 0.890625C1.59375 0.421875 2.15625 0.1875 2.8125 0.1875H23.2734C23.9297 0.1875 24.4922 0.410156 24.9609 0.855469C25.4062 1.32422 25.6289 1.88672 25.6289 2.54297C25.6289 3.19922 25.4062 3.75 24.9609 4.19531C24.8203 4.33594 24.6797 4.45312 24.5391 4.54688L9.63281 16.1484H23.2734C23.9297 16.1484 24.4922 16.3711 24.9609 16.8164C25.4062 17.2852 25.6289 17.8477 25.6289 18.5039C25.6289 19.1602 25.3945 19.7227 24.9258 20.1914C24.4805 20.6367 23.9297 20.8594 23.2734 20.8594H2.8125C2.15625 20.8594 1.60547 20.625 1.16016 20.1562C0.691406 19.7109 0.457031 19.1602 0.457031 18.5039C0.457031 17.8945 0.65625 17.3672 1.05469 16.9219H1.01953L1.16016 16.8164C1.30078 16.6758 1.45312 16.5586 1.61719 16.4648L16.6992 4.89844H2.8125C2.15625 4.89844 1.60547 4.66406 1.16016 4.19531C0.691406 3.75 0.457031 3.19922 0.457031 2.54297ZM40.5 21.5273C39.2812 21.5273 38.0742 21.3867 36.8789 21.1055C35.707 20.8242 34.582 20.4141 33.5039 19.875C32.4258 19.3125 31.4766 18.5742 30.6562 17.6602C29.8359 16.7461 29.3906 15.6562 29.3203 14.3906V12.9141V6.90234C29.3203 6.24609 29.5547 5.70703 30.0234 5.28516C30.5156 4.83984 31.0898 4.61719 31.7461 4.61719C33.1523 4.73438 33.9141 5.49609 34.0312 6.90234V8.44922V13.3008C34.0781 14.0273 34.3477 14.6367 34.8398 15.1289C35.3555 15.5977 35.918 15.9727 36.5273 16.2539C37.1602 16.5352 37.8047 16.7461 38.4609 16.8867C39.1406 17.0273 39.8203 17.0977 40.5 17.0977C41.1797 17.0977 41.8477 17.0273 42.5039 16.8867C43.1836 16.7461 43.8281 16.5352 44.4375 16.2539C45.0703 15.9727 45.6328 15.5977 46.125 15.1289C46.6406 14.6367 46.9219 14.0273 46.9688 13.3008V8.44922V6.90234C46.9688 6.24609 47.2031 5.70703 47.6719 5.28516C48.1641 4.83984 48.7383 4.61719 49.3945 4.61719C50.8008 4.73438 51.5742 5.49609 51.7148 6.90234V12.9141V14.3906C51.6445 15.6562 51.1875 16.7461 50.3438 17.6602C49.5234 18.5742 48.5742 19.3125 47.4961 19.875C46.418 20.4141 45.2812 20.8242 44.0859 21.1055C42.9141 21.3867 41.7188 21.5273 40.5 21.5273ZM55.4766 2.54297C55.4766 1.88672 55.6992 1.33594 56.1445 0.890625C56.6133 0.421875 57.1758 0.1875 57.832 0.1875H78.293C78.9492 0.1875 79.5117 0.410156 79.9805 0.855469C80.4258 1.32422 80.6484 1.88672 80.6484 2.54297C80.6484 3.19922 80.4258 3.75 79.9805 4.19531C79.8398 4.33594 79.6992 4.45312 79.5586 4.54688L64.6523 16.1484H78.293C78.9492 16.1484 79.5117 16.3711 79.9805 16.8164C80.4258 17.2852 80.6484 17.8477 80.6484 18.5039C80.6484 19.1602 80.4141 19.7227 79.9453 20.1914C79.5 20.6367 78.9492 20.8594 78.293 20.8594H57.832C57.1758 20.8594 56.625 20.625 56.1797 20.1562C55.7109 19.7109 55.4766 19.1602 55.4766 18.5039C55.4766 17.8945 55.6758 17.3672 56.0742 16.9219H56.0391L56.1797 16.8164C56.3203 16.6758 56.4727 16.5586 56.6367 16.4648L71.7188 4.89844H57.832C57.1758 4.89844 56.625 4.66406 56.1797 4.19531C55.7109 3.75 55.4766 3.19922 55.4766 2.54297ZM95.5195 21.5273C94.3008 21.5273 93.0938 21.3867 91.8984 21.1055C90.7266 20.8242 89.6016 20.4141 88.5234 19.875C87.4453 19.3125 86.4961 18.5742 85.6758 17.6602C84.8555 16.7461 84.4102 15.6562 84.3398 14.3906V12.9141V6.90234C84.3398 6.24609 84.5742 5.70703 85.043 5.28516C85.5352 4.83984 86.1094 4.61719 86.7656 4.61719C88.1719 4.73438 88.9336 5.49609 89.0508 6.90234V8.44922V13.3008C89.0977 14.0273 89.3672 14.6367 89.8594 15.1289C90.375 15.5977 90.9375 15.9727 91.5469 16.2539C92.1797 16.5352 92.8242 16.7461 93.4805 16.8867C94.1602 17.0273 94.8398 17.0977 95.5195 17.0977C96.1992 17.0977 96.8672 17.0273 97.5234 16.8867C98.2031 16.7461 98.8477 16.5352 99.457 16.2539C100.09 15.9727 100.652 15.5977 101.145 15.1289C101.66 14.6367 101.941 14.0273 101.988 13.3008V8.44922V6.90234C101.988 6.24609 102.223 5.70703 102.691 5.28516C103.184 4.83984 103.758 4.61719 104.414 4.61719C105.82 4.73438 106.594 5.49609 106.734 6.90234V12.9141V14.3906C106.664 15.6562 106.207 16.7461 105.363 17.6602C104.543 18.5742 103.594 19.3125 102.516 19.875C101.438 20.4141 100.301 20.8242 99.1055 21.1055C97.9336 21.3867 96.7383 21.5273 95.5195 21.5273Z" fill="#5E64FF"/>
</svg>
