<svg width="16" height="16" viewBox="0 0 16 16" fill="none" xmlns="http://www.w3.org/2000/svg">
<path d="M10.0667 1.66669H5.93335C4.43988 1.66669 3.69315 1.66669 3.12271 1.95733C2.62095 2.213 2.213 2.62095 1.95733 3.12271C1.66669 3.69315 1.66669 4.43988 1.66669 5.93335V10.0667C1.66669 11.5602 1.66669 12.3069 1.95733 12.8774C2.213 13.3791 2.62095 13.787 3.12271 14.0427C3.69315 14.3334 4.43988 14.3334 5.93335 14.3334H10.0667C11.5602 14.3334 12.3069 14.3334 12.8774 14.0427C13.3791 13.787 13.787 13.3791 14.0427 12.8774C14.3334 12.3069 14.3334 11.5602 14.3334 10.0667V5.93335C14.3334 4.43988 14.3334 3.69315 14.0427 3.12271C13.787 2.62095 13.3791 2.213 12.8774 1.95733C12.3069 1.66669 11.5602 1.66669 10.0667 1.66669Z" stroke="black" stroke-width="1.25" stroke-linecap="round"/>
<path d="M8.11689 9.33331C6.62163 9.33331 5.33543 9.98351 4.76477 11.0513C4.4177 11.7008 5.04717 12.3333 5.78355 12.3333H10.4502C11.1866 12.3333 11.8161 11.7008 11.469 11.0513C10.8984 9.98351 9.61215 9.33331 8.11689 9.33331Z" stroke="black" stroke-width="1.25" stroke-linecap="round"/>
<path d="M9.78353 5.66667C9.78353 6.58714 9.03733 7.33333 8.11686 7.33333C7.1964 7.33333 6.4502 6.58714 6.4502 5.66667C6.4502 4.74619 7.1964 4 8.11686 4C9.03733 4 9.78353 4.74619 9.78353 5.66667Z" stroke="black" stroke-width="1.25" stroke-linecap="round"/>
</svg>
