<svg width="16" height="16" viewBox="0 0 16 16" fill="none" xmlns="http://www.w3.org/2000/svg">
<path d="M8.186 1.04125C8.06662 0.993177 7.93338 0.993177 7.814 1.04125L1.846 3.43978L4.25 4.40542L10.404 1.93253L8.186 1.04125ZM11.75 2.47414L5.596 4.94702L8 5.91266L14.154 3.43978L11.75 2.47414ZM15 4.18234L8.5 6.79489V14.7551L15 12.1426V4.18335V4.18234ZM7.5 14.7561V6.79389L1 4.18234V12.1436L7.5 14.7561ZM7.443 0.107768C7.80057 -0.0359228 8.19943 -0.0359228 8.557 0.107768L15.686 2.97354C15.7787 3.01086 15.8581 3.07522 15.9141 3.15831C15.9701 3.24141 16 3.33944 16 3.43978V12.1436C15.9999 12.3444 15.9399 12.5405 15.8278 12.7067C15.7157 12.8729 15.5566 13.0016 15.371 13.0761L8.186 15.9639C8.06662 16.012 7.93338 16.012 7.814 15.9639L0.63 13.0761C0.444251 13.0017 0.284942 12.8732 0.172642 12.7069C0.0603417 12.5407 0.000206329 12.3445 0 12.1436L0 3.43978C2.32399e-05 3.33944 0.0299437 3.24141 0.085907 3.15831C0.14187 3.07522 0.221313 3.01086 0.314 2.97354L7.443 0.107768Z" fill="#333333"/>
</svg>
