<svg width="16" height="16" viewBox="0 0 16 16" fill="none" xmlns="http://www.w3.org/2000/svg">
<path d="M4.8 2.66606V3.73196H14.9333V5.84195L13.75 9.59442H4.4644L3.13107 0H0V1.0659H2.20227L3.5356 10.6603H14.5323L16 6.0059V2.66606H4.8Z" fill="#5E64FF"/>
<path d="M5.36612 11.7363C4.80052 11.737 4.25828 11.9618 3.85834 12.3614C3.4584 12.7611 3.23343 13.3029 3.23279 13.8681V13.8681C3.23279 14.4335 3.45755 14.9758 3.85763 15.3755C4.2577 15.7753 4.80033 15.9999 5.36612 15.9999C5.93192 15.9999 6.47454 15.7753 6.87462 15.3755C7.27469 14.9758 7.49945 14.4335 7.49945 13.8681V13.8681C7.49882 13.3029 7.27385 12.7611 6.87391 12.3614C6.47397 11.9618 5.93172 11.737 5.36612 11.7363V11.7363ZM5.36612 14.934C5.15515 14.934 4.94893 14.8715 4.77351 14.7544C4.5981 14.6373 4.46138 14.4708 4.38065 14.276C4.29992 14.0813 4.27879 13.867 4.31995 13.6602C4.36111 13.4534 4.4627 13.2635 4.61187 13.1144C4.76105 12.9654 4.95111 12.8638 5.15802 12.8227C5.36494 12.7816 5.57941 12.8027 5.77432 12.8834C5.96922 12.964 6.13582 13.1007 6.25302 13.276C6.37023 13.4512 6.43279 13.6573 6.43279 13.8681C6.43245 14.1507 6.31996 14.4216 6.12 14.6215C5.92003 14.8213 5.64892 14.9337 5.36612 14.934V14.934Z" fill="#5E64FF"/>
<path d="M12.8328 11.7363C12.2672 11.737 11.725 11.9618 11.325 12.3614C10.9251 12.7611 10.7001 13.3029 10.6995 13.8681C10.6995 14.4335 10.9242 14.9758 11.3243 15.3755C11.7244 15.7753 12.267 15.9999 12.8328 15.9999C13.3986 15.9999 13.9412 15.7753 14.3413 15.3755C14.7414 14.9758 14.9661 14.4335 14.9661 13.8681C14.9655 13.3029 14.7405 12.7611 14.3406 12.3614C13.9406 11.9618 13.3984 11.737 12.8328 11.7363V11.7363ZM12.8328 14.934C12.6218 14.934 12.4156 14.8715 12.2402 14.7544C12.0648 14.6373 11.9281 14.4708 11.8473 14.276C11.7666 14.0813 11.7455 13.867 11.7866 13.6602C11.8278 13.4534 11.9294 13.2635 12.0785 13.1144C12.2277 12.9654 12.4178 12.8638 12.6247 12.8227C12.8316 12.7816 13.0461 12.8027 13.241 12.8834C13.4359 12.964 13.6025 13.1007 13.7197 13.276C13.8369 13.4512 13.8995 13.6573 13.8995 13.8681C13.8991 14.1507 13.7866 14.4216 13.5867 14.6215C13.3867 14.8213 13.1156 14.9337 12.8328 14.934V14.934Z" fill="#5E64FF"/>
</svg>
